# xmcd
#
# Track frame offsets: 
#        150
#        18312
#        31104
#        42847
#        58150
#        77353
#        96242
#        112621
#        133318
#        167501
#        187593
#
# Disc length: 2723 seconds
#
# Revision: 2
# Processed by: cddbd v1.5.2PL0 Copyright (c) Steve Scherf et al.
# Submitted via: ExactAudioCopyFreeDBPlugin 1.0
#
DISCID=770aa10b
DTITLE=Canned Heat - Christmas Album
DYEAR=2007
DGENRE=Weihnachten
TTITLE0=Deck The Halls
TTITLE1=The Christmas Song (with The Chipmunks)
TTITLE2=Christmas Blues
TTITLE3=Santa Claus Is Coming To Town
TTITLE4=I Won't Be Home For Christmas
TTITLE5=Christmas Boogie
TTITLE6=Santa Claus Is Back In Town
TTITLE7=Jingle Bells
TTITLE8=Christmas Blues (with Dr. John)
TTITLE9=Boogie Boy (Little Drummer Boy)
TTITLE10=Christmas Blues (feat. Eric Clapton and John Popper)
EXTD=
EXTT0=
EXTT1=
EXTT2=
EXTT3=
EXTT4=
EXTT5=
EXTT6=
EXTT7=
EXTT8=
EXTT9=
EXTT10=
PLAYORDER=
